<svg width="80" height="80" viewBox="0 0 80 80" fill="none" xmlns="http://www.w3.org/2000/svg">
<path d="M16.352 46.248C29.416 39.056 50.592 39.056 63.656 46.248C76.72 53.44 76.72 65.104 63.656 72.304C50.592 79.496 29.416 79.496 16.352 72.296C3.28796 65.104 3.28796 53.44 16.352 46.248Z" fill="white"/>
<path d="M13.6879 66.6639L42.6159 49.9599C42.8799 49.8079 43.3119 49.8079 43.5839 49.9599L44.5599 50.5279C44.8319 50.6879 44.8319 50.9359 44.5599 51.0879L15.6319 67.792C15.3679 67.944 14.9359 67.944 14.6639 67.792L13.6879 67.2239C13.4159 67.0719 13.4159 66.8159 13.6879 66.6639Z" fill="#E0E0E0"/>
<path d="M52.6958 57.888C53.5438 57.44 54.9278 57.44 55.7758 57.888C56.6318 58.328 56.6318 59.048 55.7758 59.496C54.9278 59.936 53.5438 59.936 52.6958 59.496C51.8478 59.048 51.8478 58.328 52.6958 57.888Z" fill="#E0E0E0"/>
<path d="M14.464 63.624L13.152 60.624C12.4 58.304 10.744 56.264 9.11203 54.656C6.78403 52.368 6.44003 50.272 7.99203 49.792C9.65603 49.272 11.632 50.976 13.128 53.52C14.528 55.896 14.92 58.28 14.888 59.704L14.464 63.624Z" fill="#A8CF45"/>
<path d="M14.464 63.624L13.152 60.624C12.4 58.304 10.744 56.264 9.11203 54.656C6.78403 52.368 6.44003 50.272 7.99203 49.792C9.65603 49.272 11.632 50.976 13.128 53.52C14.528 55.896 14.92 58.28 14.888 59.704L14.464 63.624Z" fill="#37474F"/>
<path d="M14.624 60.76C14.584 60.752 14.552 60.728 14.536 60.68C13.544 56.624 11.016 52.36 8.664 50.752C8.616 50.72 8.608 50.656 8.632 50.616C8.664 50.568 8.728 50.552 8.776 50.584C11.168 52.216 13.728 56.536 14.736 60.632C14.744 60.688 14.712 60.744 14.664 60.76C14.648 60.76 14.6347 60.76 14.624 60.76Z" fill="white"/>
<path d="M14.8961 64.3041C14.8961 64.3041 13.9041 65.2961 12.1361 65.6881C10.3681 66.0721 9.52809 65.2641 9.52809 65.2641C9.52809 65.2641 10.1281 63.5521 11.1121 63.0161C11.1121 63.0161 9.41609 63.4721 8.08809 64.4721C8.08809 64.4721 7.00009 64.5601 6.46409 62.9201C6.46409 62.9201 7.04809 61.8801 9.19209 61.2081C9.19209 61.2081 7.84809 60.9521 5.97609 61.5521C5.84009 61.6161 5.10409 59.4961 4.85609 58.5201C4.61609 57.5361 5.01609 57.5201 5.77609 57.2641C6.53609 57.0161 9.16809 56.7281 9.68009 57.1201C10.1921 57.5201 10.5201 58.9601 10.5201 58.9601C10.5201 58.9601 10.9361 58.1121 10.7841 57.3841C10.7841 57.3841 11.5441 57.0721 12.4321 57.3201C13.3201 57.5761 13.2881 58.0001 13.3281 58.6321C13.3681 59.3121 13.3281 59.7681 13.1841 60.5361C13.1841 60.5361 13.7521 59.9841 13.6561 58.0641C13.6561 58.0641 14.8961 59.0001 15.4161 59.8321C15.9441 60.6721 15.9601 62.9441 14.8961 64.3041Z" fill="#455A64"/>
<path d="M14.9041 64.4002C14.8641 64.4082 14.8321 64.3842 14.8081 64.3522C13.1921 61.4402 7.62408 58.2802 5.68008 58.0162C5.62408 58.0082 5.58408 57.9602 5.59208 57.9042C5.60008 57.8482 5.64808 57.8162 5.70408 57.8162C7.68008 58.0802 13.3441 61.2962 14.9841 64.2562C15.0161 64.3042 15.0001 64.3602 14.9441 64.3922C14.9334 64.3975 14.9201 64.4002 14.9041 64.4002Z" fill="white"/>
<path d="M55.3601 52.1281C55.3601 52.1281 55.5841 50.1761 56.5521 48.6641C57.5201 47.1521 58.8561 46.2081 60.0961 46.1121C61.3441 46.0161 62.3441 47.1601 61.0161 47.9441C59.6881 48.7281 57.3201 49.5281 56.2321 52.4641L55.3601 52.1281Z" fill="#A8CF45"/>
<path opacity="0.1" d="M55.3601 52.1281C55.3601 52.1281 55.5841 50.1761 56.5521 48.6641C57.5201 47.1521 58.8561 46.2081 60.0961 46.1121C61.3441 46.0161 62.3441 47.1601 61.0161 47.9441C59.6881 48.7281 57.3201 49.5281 56.2321 52.4641L55.3601 52.1281Z" fill="black"/>
<path d="M55.7281 51.6241C55.7228 51.6241 55.7174 51.6214 55.7121 51.6161C55.6801 51.6081 55.6641 51.5681 55.6801 51.5361C56.9921 48.3041 59.4881 46.9521 60.6241 46.6881C60.6561 46.6801 60.6961 46.7041 60.7041 46.7441C60.7121 46.7761 60.6881 46.8081 60.6561 46.8241C59.5361 47.0801 57.0881 48.4001 55.8001 51.5841C55.7841 51.6161 55.7601 51.6321 55.7281 51.6241Z" fill="white"/>
<path d="M62.3682 51.6642C62.2562 51.9122 61.9762 52.0482 61.7202 52.1522C61.4642 52.2562 61.1842 52.3682 61.0402 52.6082C60.7602 53.0882 61.2242 53.7762 60.9202 54.2402C60.7922 54.4402 60.5602 54.5442 60.3282 54.5842C60.1362 54.6242 59.9442 54.6242 59.7442 54.6402C59.6536 54.6402 59.5629 54.6322 59.4722 54.6162C59.2002 54.5762 58.9122 54.5682 58.6722 54.7042C58.2802 54.9202 58.1682 55.4082 57.9282 55.7842C57.6482 56.2322 57.1522 56.5282 56.6322 56.5922C56.4642 56.6162 56.1362 56.6482 55.9602 56.5522C55.9496 56.5468 55.9389 56.5388 55.9282 56.5282C55.9229 56.5282 55.9202 56.5282 55.9202 56.5282C55.8962 56.4962 55.8642 56.4642 55.8562 56.4402C55.8509 56.4402 55.8482 56.4375 55.8482 56.4322C55.7762 56.1842 55.8882 55.9202 55.8962 55.6562C55.8962 55.6402 55.8962 55.6268 55.8962 55.6162C55.8856 55.3122 55.8776 55.0108 55.8722 54.7122C55.8562 54.1575 55.8509 53.6028 55.8562 53.0482C55.8562 52.6882 55.8162 52.2962 55.9682 51.9522C56.1362 51.5842 56.5522 51.5762 56.7122 51.2082C56.7762 51.0642 56.8082 50.9042 56.8722 50.7602C57.0562 50.3202 57.4962 50.0162 57.9682 49.9922C58.7042 49.9522 59.3602 50.5442 60.0882 50.4882C60.2802 50.4802 60.4642 50.4162 60.6482 50.3842C61.2402 50.2722 61.9282 50.4402 62.2642 50.9442C62.4002 51.1522 62.4722 51.4322 62.3682 51.6642Z" fill="#A8CF45"/>
<path d="M55.7842 55.2802C55.7522 55.2722 55.7282 55.2322 55.7362 55.2002C56.7522 51.4082 60.7522 50.8562 61.6882 50.9202C61.7202 50.9282 61.7442 50.9602 61.7442 50.9922C61.7442 51.0242 61.7122 51.0482 61.6802 51.0482C60.7602 50.9842 56.8482 51.5202 55.8562 55.2322C55.8482 55.2642 55.8162 55.2882 55.7842 55.2802Z" fill="white"/>
<path d="M60.2323 53.3522C60.2216 53.3522 60.211 53.3469 60.2003 53.3362C60.1923 53.3282 59.1683 52.3202 57.4803 52.5682C57.4403 52.5762 57.4083 52.5522 57.4083 52.5202C57.4003 52.4882 57.4243 52.4562 57.4563 52.4482C59.2163 52.1922 60.2803 53.2402 60.2883 53.2482C60.3123 53.2722 60.3123 53.3122 60.2883 53.3362C60.2723 53.3522 60.2483 53.3602 60.2323 53.3522Z" fill="white"/>
<path d="M15.328 67.256L14.72 66.912C14.528 66.8 14.376 66.528 14.376 66.312V21.328C14.376 21.112 14.528 20.84 14.72 20.728L42.624 4.62404C42.816 4.51204 43.128 4.51204 43.312 4.62404L43.92 4.96804C44.112 5.08004 44.272 5.35204 44.272 5.56804V50.552C44.272 50.768 44.112 51.04 43.92 51.152L16.016 67.256C15.824 67.368 15.52 67.368 15.328 67.256Z" fill="#397351"/>
<path opacity="0.4" d="M44.2639 5.51204C44.2399 5.33604 44.0959 5.27204 43.9199 5.36804L16.0159 21.48C15.9199 21.536 15.8399 21.632 15.7759 21.736L14.4719 20.992C14.5359 20.88 14.6239 20.784 14.7199 20.728L42.6239 4.62404C42.8159 4.51204 43.1279 4.51204 43.3119 4.62404L43.9199 4.96804C44.0959 5.07204 44.2399 5.30404 44.2639 5.51204Z" fill="white"/>
<path opacity="0.1" d="M15.96 67.2879C15.9493 67.2933 15.9413 67.296 15.936 67.296C15.9253 67.3013 15.9146 67.3066 15.904 67.312C15.8986 67.312 15.8933 67.312 15.888 67.312C15.8666 67.3173 15.8453 67.3226 15.824 67.3279H15.816C15.68 67.3519 15.528 67.344 15.4 67.296C15.3733 67.2853 15.3493 67.2746 15.328 67.264L14.72 66.9119C14.528 66.7999 14.376 66.528 14.376 66.312V21.3279C14.376 21.2239 14.408 21.0959 14.472 20.9919L15.776 21.7359C15.712 21.8479 15.672 21.9679 15.672 22.0799V67.064C15.672 67.136 15.688 67.1999 15.728 67.2399C15.768 67.2959 15.832 67.32 15.912 67.304C15.928 67.2986 15.944 67.2933 15.96 67.2879Z" fill="black"/>
<path fill-rule="evenodd" clip-rule="evenodd" d="M35.8159 15.1601L24.1199 21.9121L23.4719 21.5361V19.7361C23.4719 19.5041 23.5039 19.2081 24.3839 18.0001C25.2639 16.7841 25.2879 16.3761 25.6879 15.8241C26.0879 15.2641 26.8159 14.8641 27.3279 13.5761C27.8399 12.2881 27.8879 10.3281 29.3199 9.50414C29.5679 9.36014 29.7679 9.29614 29.9439 9.29614C30.0719 9.29614 30.1839 9.32814 30.2799 9.38414L30.8719 9.73614C30.8933 9.74148 30.9119 9.74948 30.9279 9.76014L30.7599 10.0161C30.9519 10.4481 31.0879 10.9761 31.3119 11.2721C31.5119 11.5441 31.7439 11.6401 31.9759 11.6721C32.3439 11.7121 32.7119 11.5681 32.9519 11.6241C33.0159 11.6401 33.0719 11.6641 33.1279 11.6961L33.7759 12.0721L33.7359 12.1281C33.8079 12.1601 33.8879 12.1921 33.9839 12.2321C34.0639 12.2535 34.1546 12.2775 34.2559 12.3041C34.5839 12.3761 34.7919 12.4561 34.9279 12.5441L35.5039 12.8721C35.5199 12.8828 35.5359 12.8935 35.5519 12.9041L35.8159 15.1601ZM25.1039 19.2721C25.1039 19.0401 24.9839 18.9201 24.8319 19.0081C24.6799 19.0961 24.5519 19.3601 24.5519 19.5921C24.5519 19.8241 24.6799 19.9441 24.8319 19.8561C24.9839 19.7681 25.1039 19.5041 25.1039 19.2721ZM31.0079 12.5841C31.0079 11.8321 30.6719 11.3921 30.2239 11.4801C30.0399 11.1121 29.7039 10.9841 29.3199 11.2081C28.7439 11.5441 28.2799 12.5281 28.2799 13.4161C28.2799 14.1681 28.6159 14.6081 29.0719 14.5201C29.2479 14.8881 29.5839 15.0161 29.9679 14.7921C30.5439 14.4561 31.0079 13.4721 31.0079 12.5841ZM34.1279 14.0641C34.1279 13.8321 34.0079 13.7121 33.8559 13.8001C33.7039 13.8881 33.5759 14.1441 33.5759 14.3841C33.5759 14.6161 33.7039 14.7361 33.8559 14.6481C34.0079 14.5601 34.1279 14.2961 34.1279 14.0641Z" fill="#455A64"/>
<path opacity="0.5" d="M24.7679 21.5361L24.1199 21.9121L23.4719 21.5361V19.7361C23.4719 19.6561 23.4799 19.5761 23.5119 19.4561L24.7679 20.1761V21.5361Z" fill="#37474F"/>
<path opacity="0.5" d="M24.8879 17.2482C25.2959 16.5762 25.3839 16.2402 25.6879 15.8242L26.7199 16.4242L26.0719 17.9282L24.8879 17.2482Z" fill="#37474F"/>
<path opacity="0.5" d="M27.1199 14.0321C27.1892 13.8935 27.2585 13.7415 27.3279 13.5761C27.6399 12.7921 27.7839 11.7601 28.1679 10.8801L29.0719 11.4001C28.6159 11.8401 28.2799 12.6641 28.2799 13.4161C28.2799 13.9841 28.4639 14.3681 28.7519 14.4881L28.6719 14.9281L27.1199 14.0321Z" fill="#37474F"/>
<path fill-rule="evenodd" clip-rule="evenodd" d="M35.8159 13.3601V15.1601L24.1199 21.9121V20.1121C24.1199 19.8801 24.1519 19.5841 25.0319 18.3761C25.9119 17.1601 25.9359 16.7521 26.3359 16.2001C26.7359 15.6401 27.4639 15.2401 27.9759 13.9521C28.4879 12.6641 28.5359 10.7041 29.9679 9.87206C30.3599 9.64806 30.6559 9.63206 30.8719 9.73606C30.8932 9.7414 30.9119 9.7494 30.9279 9.76006C31.4719 10.0801 31.5999 11.1601 31.9599 11.6481C31.9652 11.6534 31.9705 11.6614 31.9759 11.6721C32.4879 12.3361 33.2079 11.9041 33.5999 12.0001C33.6719 12.0161 33.7279 12.0401 33.7759 12.0721C33.8479 12.1121 33.9119 12.1681 33.9839 12.2321C34.1599 12.3761 34.3839 12.5601 34.9039 12.6801C35.1759 12.7361 35.3679 12.8001 35.5039 12.8721C35.5199 12.8827 35.5359 12.8934 35.5519 12.9041C35.7999 13.0481 35.8159 13.2081 35.8159 13.3601ZM25.7519 19.6481C25.7519 19.4161 25.6319 19.2961 25.4799 19.3841C25.3279 19.4721 25.1999 19.7361 25.1999 19.9681C25.1999 20.2001 25.3279 20.3201 25.4799 20.2321C25.6319 20.1441 25.7519 19.8801 25.7519 19.6481ZM31.0079 12.5841C31.0079 11.8321 30.6719 11.3921 30.2159 11.4881C30.1359 11.5041 30.0532 11.5361 29.9679 11.5841C29.3919 11.9201 28.9279 12.9041 28.9279 13.7921C28.9279 14.0881 28.9759 14.3361 29.0639 14.5201C29.2479 14.8881 29.5839 15.0161 29.9679 14.7921C30.5439 14.4641 31.0079 13.4721 31.0079 12.5841ZM34.7759 14.4401C34.7759 14.2081 34.6559 14.0881 34.5039 14.1761C34.3439 14.2641 34.2239 14.5201 34.2239 14.7601C34.2239 14.9921 34.3439 15.1121 34.5039 15.0241C34.6559 14.9361 34.7759 14.6721 34.7759 14.4401Z" fill="#37474F"/>
<path d="M31.008 12.5842C31.008 13.4722 30.544 14.4642 29.968 14.7922C29.584 15.0162 29.248 14.8882 29.064 14.5202C29.1493 14.5042 29.2346 14.4695 29.32 14.4162C29.896 14.0882 30.36 13.0962 30.36 12.2162C30.36 11.9202 30.312 11.6722 30.216 11.4882C30.672 11.3922 31.008 11.8322 31.008 12.5842Z" fill="#263238"/>
<path d="M25.48 20.2321C25.328 20.3201 25.2 20.2001 25.2 19.9681C25.2 19.7281 25.328 19.4721 25.48 19.3841C25.632 19.2961 25.7519 19.4161 25.7519 19.6481C25.7519 19.8801 25.632 20.1441 25.48 20.2321Z" fill="#263238"/>
<path d="M34.4959 15.0241C34.3439 15.1121 34.2239 14.9921 34.2239 14.7601C34.2239 14.5201 34.3439 14.2641 34.4959 14.1761C34.6559 14.0881 34.7759 14.2081 34.7759 14.4401C34.7759 14.6721 34.6559 14.9361 34.4959 15.0241Z" fill="#263238"/>
<path d="M17.832 25.6879L42.112 11.6719C42.224 11.5999 42.416 11.5999 42.528 11.6719L42.76 11.8079C42.872 11.8719 42.968 12.0319 42.968 12.1679V49.2079C42.968 49.3439 42.872 49.5039 42.76 49.5679L18.48 63.5839C18.368 63.6559 18.176 63.6559 18.064 63.5839L17.832 63.4479C17.712 63.3839 17.624 63.2239 17.624 63.0879V26.0479C17.624 25.9119 17.712 25.7519 17.832 25.6879Z" fill="#F5F5F5"/>
<path d="M42.9599 12.1039C42.9359 12.0159 42.8559 11.9919 42.7599 12.0479L18.4799 26.0639C18.4239 26.0959 18.3679 26.1519 18.3359 26.2159L17.6799 25.8479C17.7199 25.7759 17.7759 25.7199 17.8319 25.6879L42.1119 11.6719C42.2239 11.5999 42.4159 11.5999 42.5279 11.6719L42.7599 11.8079C42.8559 11.8639 42.9439 11.9839 42.9599 12.1039Z" fill="#FAFAFA"/>
<path d="M18.432 63.6079C18.4054 63.6186 18.3787 63.6266 18.352 63.6319C18.3414 63.6319 18.328 63.6319 18.312 63.6319C18.2694 63.6372 18.2267 63.6372 18.184 63.6319C18.1574 63.6266 18.1334 63.6186 18.112 63.6079C18.096 63.6026 18.08 63.5946 18.064 63.5839L17.832 63.4559C17.712 63.3839 17.624 63.2239 17.624 63.0959V26.0479C17.624 25.9839 17.648 25.9119 17.68 25.8479L18.336 26.2159C18.296 26.2879 18.272 26.3599 18.272 26.4239V63.4639C18.272 63.5839 18.336 63.6399 18.432 63.6079Z" fill="#E0E0E0"/>
<path fill-rule="evenodd" clip-rule="evenodd" d="M37.512 16.9201C37.512 16.9201 37.272 17.8241 37.192 18.3121C37.192 18.3174 37.192 18.3201 37.192 18.3201C37.176 18.4001 37.12 18.4881 37.064 18.5121L23.048 26.6001L22.792 26.7441C22.792 26.7441 22.7893 26.7441 22.784 26.7441C22.7786 26.7494 22.7733 26.7494 22.768 26.7441C22.744 26.7361 22.736 26.7041 22.744 26.6561V26.6481C22.992 25.3201 23.352 24.2561 24.624 23.1921L26.664 21.6641C26.664 21.6641 27.208 21.1521 27.296 20.6161L27.424 19.9041L27.816 17.6721C27.816 17.6721 27.856 17.2641 28.36 16.7681C28.864 16.2801 29.744 14.9361 29.896 14.0641C30.136 12.6881 31.136 11.1521 32.12 10.6321C32.344 10.5201 32.544 10.4641 32.72 10.4641C32.848 10.4641 32.968 10.4961 33.072 10.5601L33.704 10.9201L33.736 10.9361C33.736 11.0161 33.856 13.6641 34.264 13.6801C34.2906 13.6801 34.3146 13.6801 34.336 13.6801C34.3786 13.6908 34.4133 13.7041 34.44 13.7201L35.072 14.0881C35.0773 14.0881 35.0826 14.0908 35.088 14.0961L34.088 16.8001C33.992 17.3281 34.296 17.3841 34.448 17.3201C34.552 17.2801 34.64 17.2481 34.728 17.2081C35.12 17.0481 35.448 16.8961 36.2 16.5601C36.464 16.4481 36.688 16.4481 36.856 16.5441L37.496 16.9201C37.5013 16.9201 37.5066 16.9201 37.512 16.9201ZM32.8 11.7921C32.752 11.6081 32.656 11.4801 32.528 11.4241C32.384 11.3521 30.6 14.4161 30.792 14.5761C30.912 14.6641 31.064 14.6881 31.248 14.6321C31.352 15.0161 31.656 15.1521 32.08 14.9361C32.688 14.6161 33.296 13.6721 33.448 12.8241C33.584 12.0641 33.296 11.6401 32.8 11.7921Z" fill="#455A64"/>
<path opacity="0.5" d="M23.6 26.1042L22.792 26.7442C22.792 26.7442 22.7893 26.7442 22.784 26.7442C22.7786 26.7495 22.7733 26.7495 22.768 26.7442C22.744 26.7362 22.736 26.7042 22.744 26.6562V26.6482C22.92 25.6962 23.16 24.8722 23.752 24.0962L24.768 24.6802L23.6 26.1042Z" fill="#37474F"/>
<path opacity="0.5" d="M27.2959 20.616L27.4239 19.904L27.8159 17.672C27.8159 17.672 27.8399 17.472 28.0239 17.176L29.3199 17.928L28.6719 21.68L27.2319 20.848C27.2639 20.7734 27.2853 20.696 27.2959 20.616Z" fill="#37474F"/>
<path opacity="0.5" d="M31.568 12.8482C31.112 13.6482 30.688 14.4962 30.792 14.5762C30.904 14.6642 31.056 14.6882 31.232 14.6322L30.624 16.0562L29.384 15.3362C29.632 14.8962 29.832 14.4402 29.896 14.0642C30 13.4642 30.248 12.8402 30.576 12.2722L31.568 12.8482Z" fill="#37474F"/>
<path fill-rule="evenodd" clip-rule="evenodd" d="M37.9039 17.848C37.9039 17.848 37.3359 18.384 37.3039 18.408C37.2639 18.432 37.1039 18.52 37.1039 18.52L23.0479 26.6L22.7919 26.744C22.7866 26.7494 22.7839 26.7494 22.7839 26.744C22.8319 26.696 23.5999 26.104 23.5999 26.104C23.8639 25.2 24.3199 24.368 25.2719 23.568L27.3119 22.04C27.3119 22.04 27.8559 21.528 27.9519 20.992L28.0719 20.28L28.4719 18.048C28.4719 18.048 28.5039 17.64 29.0079 17.144C29.5119 16.656 30.3919 15.312 30.5439 14.44C30.7839 13.064 31.7839 11.528 32.7679 11.008C33.1439 10.816 33.4639 10.792 33.7039 10.92C33.7146 10.9254 33.7253 10.9307 33.7359 10.936C34.1039 11.152 34.2639 11.736 34.1199 12.568C34.0319 13.032 34.1439 13.424 34.3359 13.68C34.4959 13.912 34.7199 14.048 34.9119 14.056C34.9813 14.056 35.0346 14.0667 35.0719 14.088C35.0773 14.088 35.0826 14.0907 35.0879 14.096C35.2959 14.208 35.2159 14.52 35.2159 14.52L34.8639 16.464L34.7359 17.176C34.7359 17.1867 34.7333 17.1974 34.7279 17.208C34.6559 17.712 34.9519 17.76 35.0959 17.696C35.6479 17.48 35.9279 17.344 36.8559 16.936C37.1119 16.824 37.3359 16.824 37.4959 16.92C37.5013 16.92 37.5066 16.92 37.5119 16.92C37.7439 17.064 37.8799 17.392 37.9039 17.848ZM32.7999 11.792C32.7413 11.808 32.6826 11.832 32.6239 11.864C32.0159 12.184 31.3999 13.128 31.2479 13.976C31.1999 14.24 31.2079 14.456 31.2479 14.632C31.3519 15.016 31.6559 15.152 32.0799 14.936C32.6879 14.616 33.2959 13.672 33.4479 12.824C33.5839 12.064 33.2959 11.64 32.7999 11.792Z" fill="#37474F"/>
<path d="M33.448 12.8241C33.296 13.6721 32.688 14.6161 32.08 14.9361C31.656 15.1521 31.352 15.0161 31.248 14.6321C31.3067 14.6161 31.368 14.5921 31.432 14.5601C32.04 14.2401 32.648 13.2961 32.8 12.4481C32.848 12.1841 32.84 11.9601 32.8 11.7921C33.296 11.6401 33.584 12.0641 33.448 12.8241Z" fill="#263238"/>
<path fill-rule="evenodd" clip-rule="evenodd" d="M33.0959 13.5442C32.9439 13.9682 31.9999 14.9282 31.7199 14.9282C31.7146 14.9282 31.7119 14.9282 31.7119 14.9282C31.4399 14.9122 31.2479 14.6322 31.2479 14.6322C31.2079 14.4562 31.1999 14.2402 31.2479 13.9762C31.3999 13.1282 32.0159 12.1842 32.6239 11.8642C32.6826 11.8322 32.7412 11.8082 32.7999 11.7922C32.8212 11.7868 32.8426 11.7842 32.8639 11.7842C33.5759 11.7842 33.2479 13.1282 33.0959 13.5442ZM32.8079 11.8242C32.7546 11.8455 32.6986 11.8695 32.6399 11.8962C32.0399 12.2082 31.4399 13.1442 31.2879 13.9842C31.2479 14.2242 31.2479 14.4402 31.2879 14.6162C31.3119 14.6562 31.4799 14.8722 31.7119 14.8882C31.9759 14.8882 32.9119 13.9362 33.0639 13.5282C33.1679 13.2402 33.4079 12.3282 33.1519 11.9682C33.0879 11.8722 32.9919 11.8242 32.8639 11.8242C32.8426 11.8242 32.8239 11.8242 32.8079 11.8242Z" fill="#263238"/>
<path d="M23.5999 26.1041L37.9039 17.8481C37.9039 17.8481 37.3359 18.3841 37.3039 18.4081C37.2639 18.4321 37.1039 18.5201 37.1039 18.5201L22.7919 26.7441C22.7279 26.7761 23.5999 26.1041 23.5999 26.1041Z" fill="#263238"/>
<path d="M20.2478 30.4881L24.1198 28.2241V32.7281L20.2478 34.9921V30.4881Z" fill="#FAFAFA"/>
<path fill-rule="evenodd" clip-rule="evenodd" d="M20.2479 35.152C20.2212 35.152 20.1946 35.144 20.1679 35.128C20.1199 35.104 20.0879 35.048 20.0879 34.992V30.488C20.0879 30.432 20.1199 30.376 20.1679 30.352L24.0399 28.08C24.0879 28.056 24.1519 28.056 24.1999 28.08C24.2479 28.112 24.2799 28.16 24.2799 28.224V32.728C24.2799 32.784 24.2479 32.832 24.1999 32.864L20.3279 35.128C20.3012 35.144 20.2746 35.152 20.2479 35.152ZM20.4079 30.584V34.712L23.9599 32.632V28.504L20.4079 30.584Z" fill="#455A64"/>
<path d="M26.3438 26.7761L40.0878 18.84C40.2478 18.752 40.3678 18.824 40.3678 19V19.328C40.3678 19.504 40.2478 19.72 40.0878 19.808L26.3438 27.7361C26.1918 27.8321 26.0718 27.7601 26.0718 27.5761V27.2561C26.0718 27.0801 26.1918 26.8641 26.3438 26.7761Z" fill="#E0E0E0"/>
<path d="M26.3438 28.7441L40.0878 20.8081C40.2478 20.7201 40.3678 20.7921 40.3678 20.9681V21.2961C40.3678 21.4721 40.2478 21.6881 40.0878 21.7761L26.3438 29.7041C26.1918 29.7921 26.0718 29.7201 26.0718 29.5441V29.2241C26.0718 29.0401 26.1918 28.8321 26.3438 28.7441Z" fill="#E0E0E0"/>
<path d="M26.3438 30.696L40.0878 22.76C40.2478 22.672 40.3678 22.744 40.3678 22.92V23.248C40.3678 23.424 40.2478 23.64 40.0878 23.728L26.3438 31.664C26.1918 31.752 26.0718 31.68 26.0718 31.504V31.176C26.0718 31 26.1918 30.784 26.3438 30.696Z" fill="#E0E0E0"/>
<path d="M22.2478 32.7921L21.3518 31.9201L21.7358 31.1041L22.2478 31.6001L24.3838 27.0801L24.7678 27.4561L22.2478 32.7921Z" fill="#97BF30"/>
<path d="M20.2478 38.7442L24.1198 36.4802V40.9762L20.2478 43.2482V38.7442Z" fill="#FAFAFA"/>
<path fill-rule="evenodd" clip-rule="evenodd" d="M20.2479 43.4081C20.2212 43.4081 20.1946 43.4001 20.1679 43.3841C20.1199 43.3601 20.0879 43.3041 20.0879 43.2481V38.7441C20.0879 38.6881 20.1199 38.6321 20.1679 38.6081L24.0399 36.3361C24.0879 36.3121 24.1519 36.3121 24.1999 36.3361C24.2479 36.3681 24.2799 36.4161 24.2799 36.4801V40.9761C24.2799 41.0401 24.2479 41.0881 24.1999 41.1201L20.3279 43.3841C20.3012 43.4001 20.2746 43.4081 20.2479 43.4081ZM20.4079 38.8321V42.9681L23.9599 40.8881V36.7521L20.4079 38.8321Z" fill="#455A64"/>
<path d="M26.3438 35.0322L40.0878 27.0962C40.2478 27.0082 40.3678 27.0802 40.3678 27.2562V27.5841C40.3678 27.7601 40.2478 27.9761 40.0878 28.0641L26.3438 35.9922C26.1918 36.0802 26.0718 36.0082 26.0718 35.8322V35.5122C26.0718 35.3362 26.1918 35.1202 26.3438 35.0322Z" fill="#E0E0E0"/>
<path d="M26.3438 37.0002L40.0878 29.0642C40.2478 28.9762 40.3678 29.0482 40.3678 29.2242V29.5442C40.3678 29.7282 40.2478 29.9362 40.0878 30.0242L26.3438 37.9602C26.1918 38.0482 26.0718 37.9762 26.0718 37.8002V37.4802C26.0718 37.2962 26.1918 37.0882 26.3438 37.0002Z" fill="#E0E0E0"/>
<path d="M26.3438 38.9521L40.0878 31.0161C40.2478 30.9281 40.3678 31.0001 40.3678 31.1761V31.5041C40.3678 31.6801 40.2478 31.8961 40.0878 31.9841L26.3438 39.9201C26.1918 40.0081 26.0718 39.9361 26.0718 39.7601V39.4321C26.0718 39.2561 26.1918 39.0401 26.3438 38.9521Z" fill="#E0E0E0"/>
<path d="M22.2478 41.0482L21.3518 40.1762L21.7358 39.3602L22.2478 39.8482L24.3838 35.3362L24.7678 35.7122L22.2478 41.0482Z" fill="#97BF30"/>
<path d="M20.2478 47.0001L24.1198 44.7361V49.2321L20.2478 51.5041V47.0001Z" fill="#FAFAFA"/>
<path fill-rule="evenodd" clip-rule="evenodd" d="M20.2479 51.664C20.2212 51.664 20.1946 51.656 20.1679 51.64C20.1199 51.616 20.0879 51.56 20.0879 51.504V47C20.0879 46.944 20.1199 46.888 20.1679 46.864L24.0399 44.592C24.0879 44.568 24.1519 44.568 24.1999 44.592C24.2479 44.624 24.2799 44.672 24.2799 44.736V49.232C24.2799 49.288 24.2479 49.344 24.1999 49.376L20.3279 51.64C20.3012 51.656 20.2746 51.664 20.2479 51.664ZM20.4079 47.088V51.224L23.9599 49.144V45.008L20.4079 47.088Z" fill="#455A64"/>
<path d="M26.3438 43.288L40.0878 35.352C40.2478 35.264 40.3678 35.336 40.3678 35.512V35.84C40.3678 36.016 40.2478 36.232 40.0878 36.32L26.3438 44.248C26.1918 44.336 26.0718 44.264 26.0718 44.088V43.768C26.0718 43.592 26.1918 43.376 26.3438 43.288Z" fill="#E0E0E0"/>
<path d="M26.3438 45.248L40.0878 37.32C40.2478 37.232 40.3678 37.296 40.3678 37.48V37.8C40.3678 37.976 40.2478 38.192 40.0878 38.28L26.3438 46.216C26.1918 46.304 26.0718 46.232 26.0718 46.056V45.728C26.0718 45.552 26.1918 45.336 26.3438 45.248Z" fill="#E0E0E0"/>
<path d="M26.3438 47.2079L40.0878 39.2719C40.2478 39.1839 40.3678 39.2559 40.3678 39.4319V39.7599C40.3678 39.9359 40.2478 40.1519 40.0878 40.2399L26.3438 48.1759C26.1918 48.2639 26.0718 48.1919 26.0718 48.0159V47.6879C26.0718 47.5119 26.1918 47.2959 26.3438 47.2079Z" fill="#E0E0E0"/>
<path d="M20.2478 55.2561L24.1198 52.9841V57.4881L20.2478 59.7601V55.2561Z" fill="#FAFAFA"/>
<path fill-rule="evenodd" clip-rule="evenodd" d="M20.2479 59.9201C20.2212 59.9201 20.1946 59.9121 20.1679 59.8961C20.1199 59.8721 20.0879 59.8161 20.0879 59.7601V55.2561C20.0879 55.2001 20.1199 55.1441 20.1679 55.1201L24.0399 52.8481C24.0879 52.8241 24.1519 52.8241 24.1999 52.8481C24.2479 52.8801 24.2799 52.9281 24.2799 52.9841V57.4881C24.2799 57.5441 24.2479 57.6001 24.1999 57.6321L20.3279 59.8961C20.3012 59.9121 20.2746 59.9201 20.2479 59.9201ZM20.4079 55.3441V59.4801L23.9599 57.4001V53.2641L20.4079 55.3441Z" fill="#455A64"/>
<path d="M26.3438 51.5441L40.0878 43.6081C40.2478 43.5201 40.3678 43.5921 40.3678 43.7681V44.0881C40.3678 44.2721 40.2478 44.4801 40.0878 44.5681L26.3438 52.5041C26.1918 52.5921 26.0718 52.5201 26.0718 52.3441V52.0241C26.0718 51.8401 26.1918 51.6321 26.3438 51.5441Z" fill="#E0E0E0"/>
<path d="M26.3438 53.5041L40.0878 45.5681C40.2478 45.4801 40.3678 45.5521 40.3678 45.7281V46.0561C40.3678 46.2321 40.2478 46.4481 40.0878 46.5361L26.3438 54.4721C26.1918 54.5601 26.0718 54.4881 26.0718 54.3121V53.9841C26.0718 53.8081 26.1918 53.5921 26.3438 53.5041Z" fill="#E0E0E0"/>
<path d="M26.3438 55.464L40.0878 47.528C40.2478 47.44 40.3678 47.512 40.3678 47.688V48.016C40.3678 48.192 40.2478 48.408 40.0878 48.496L26.3438 56.432C26.1918 56.52 26.0718 56.448 26.0718 56.272V55.944C26.0718 55.768 26.1918 55.552 26.3438 55.464Z" fill="#E0E0E0"/>
<path d="M56.496 52.64L54.44 58.648C54.376 58.824 54.128 58.816 54.072 58.648L52.04 52.592L56.496 52.64Z" fill="#FFA8A7"/>
<path d="M53.6401 57.3521L53.7281 57.408C54.0561 57.64 54.4881 57.6641 54.8401 57.4721L54.4401 58.648C54.3761 58.824 54.1281 58.816 54.0721 58.648L53.6401 57.3521Z" fill="#263238"/>
<path d="M56.568 25.8242L56.56 27.1762L56.488 52.6402C56.096 53.2322 54.992 53.5842 53.912 53.4722C53.208 53.4002 52.512 53.1282 52.04 52.5922L52.112 27.1122L52.12 26.4082V25.8162C52.08 26.6962 56.52 26.6962 56.568 25.8242Z" fill="#F7BC00"/>
<path d="M52.104 28.088V28.096C52.152 28.448 52.936 28.68 53.832 28.768C55.072 28.88 56.536 28.544 56.552 28.04L56.56 28.384V29.352C56.536 29.856 55.08 30.192 53.832 30.08C52.896 29.992 52.088 29.744 52.104 29.368V28.056C52.104 28.0667 52.104 28.0774 52.104 28.088Z" fill="#EBEBEB"/>
<path d="M52.1119 27.0642C52.0799 27.9522 56.5359 27.9362 56.5679 27.0562L56.5599 28.3682C56.5279 29.2562 52.0719 29.2642 52.1039 28.3842L52.1119 27.0642Z" fill="#F7BC00"/>
<path d="M56.5681 25.8242V27.1282C56.5681 27.1442 56.5681 27.1682 56.5601 27.1762C56.3681 28.0082 52.0721 27.9842 52.1121 27.1122L52.1201 25.8162C52.0801 26.6962 56.5201 26.6962 56.5681 25.8242Z" fill="#EBEBEB"/>
<path opacity="0.1" d="M56.4879 52.64H56.4959L54.4399 58.648L54.5599 53.496L54.6239 26.552C55.6319 26.512 56.5439 26.216 56.5679 25.824L56.5599 27.176L56.4879 52.64Z" fill="black"/>
<path d="M53.0321 19.3841C54.3601 18.9201 56.5921 19.2001 56.5921 20.2961L56.5681 25.8161C56.5681 25.8241 56.5681 25.8241 56.5681 25.8241C56.5361 26.3281 55.0721 26.6561 53.8321 26.5281C52.9041 26.4401 52.1041 26.1921 52.1201 25.8161L52.1361 20.3121C52.1761 19.8561 52.5361 19.5521 53.0321 19.3841Z" fill="#F28F8F"/>
</svg>
